#N canvas 532 71 454 458 10;
#X obj 111 414 link;
#X obj 24 57 cnv 2 400 2 empty empty empty 20 12 0 14 -191407 -66577
0;
#X obj 191 346 monitor~;
#N canvas 234 138 200 239 (subpatch) 0;
#X msg 2 155 \; pd dsp \$1 \;;
#X obj 2 122 tgl 15 0 empty empty empty 17 7 0 10 -262144 -1 -1 1 1
;
#X text 20 122 DSP on/off;
#X obj 68 30 loadbang;
#X msg 68 87 1;
#X obj 2 30 r pd;
#X obj 2 59 route dsp;
#X msg 2 87 set \$1;
#X connect 1 0 0 0;
#X connect 3 0 4 0;
#X connect 4 0 1 0;
#X connect 5 0 6 0;
#X connect 6 0 7 0;
#X connect 7 0 1 0;
#X coords 0 1 100 -1 85 19 1 0 120;
#X restore 324 26 graph;
#X floatatom 191 368 5 0 0 0 - - -;
#X obj 37 28 cartodb~;
#X text 98 27 Cartesian to Decibels;
#X text 159 148 inlet 2: imaginary values;
#X text 160 200 argument: overlap factor;
#X text 160 182 outlet: decibels;
#X text 160 165 inlet 3: overlap factor;
#X obj 191 313 cartodb~;
#X floatatom 191 259 5 0 0 0 - - -;
#X obj 191 278 sig~;
#X floatatom 225 259 5 0 0 0 - - -;
#X obj 225 278 sig~;
#X text 159 131 inlet 1: real value;
#X text 67 79 Converts cartesian coordinates to dB-FS decibel values
;
#X connect 2 0 4 0;
#X connect 11 0 2 0;
#X connect 12 0 13 0;
#X connect 13 0 11 0;
#X connect 14 0 15 0;
#X connect 15 0 11 1;
