#N canvas 529 50 455 434 10;
#X obj 105 393 link;
#X obj 24 57 cnv 2 400 2 empty empty empty 20 12 0 14 -191407 -66577
0;
#X obj 188 321 monitor~;
#N canvas 234 138 200 239 (subpatch) 0;
#X msg 2 155 \; pd dsp \$1 \;;
#X obj 2 122 tgl 15 0 empty empty empty 17 7 0 10 -262144 -1 -1 1 1
;
#X text 20 122 DSP on/off;
#X obj 68 30 loadbang;
#X msg 68 87 1;
#X obj 2 30 r pd;
#X obj 2 59 route dsp;
#X msg 2 87 set \$1;
#X connect 1 0 0 0;
#X connect 3 0 4 0;
#X connect 4 0 1 0;
#X connect 5 0 6 0;
#X connect 6 0 7 0;
#X connect 7 0 1 0;
#X coords 0 1 100 -1 85 19 1 0 120;
#X restore 324 26 graph;
#X floatatom 188 343 5 0 0 0 - - -;
#X floatatom 188 221 5 0 0 0 - - -;
#X obj 188 240 sig~;
#X floatatom 251 221 5 0 0 0 - - -;
#X obj 251 240 sig~;
#X obj 37 28 cartophase~;
#X text 118 27 Cartesian to Phase;
#X text 84 80 Converts cartesian coordinates to phase values;
#X text 162 163 outlet: phase;
#X obj 188 281 cartophase~;
#X text 161 129 inlet 1: real value;
#X text 161 146 inlet 2: imaginary value;
#X connect 2 0 4 0;
#X connect 5 0 6 0;
#X connect 6 0 13 0;
#X connect 7 0 8 0;
#X connect 8 0 13 1;
#X connect 13 0 2 0;
