#N canvas 526 64 456 471 10;
#X obj 107 416 link;
#X obj 24 57 cnv 2 400 2 empty empty empty 20 12 0 14 -191407 -66577
0;
#X obj 189 336 monitor~;
#N canvas 234 138 200 239 (subpatch) 0;
#X msg 2 155 \; pd dsp \$1 \;;
#X obj 2 122 tgl 15 0 empty empty empty 17 7 0 10 -262144 -1 -1 1 1
;
#X text 20 122 DSP on/off;
#X obj 68 30 loadbang;
#X msg 68 87 1;
#X obj 2 30 r pd;
#X obj 2 59 route dsp;
#X msg 2 87 set \$1;
#X connect 1 0 0 0;
#X connect 3 0 4 0;
#X connect 4 0 1 0;
#X connect 5 0 6 0;
#X connect 6 0 7 0;
#X connect 7 0 1 0;
#X coords 0 1 100 -1 85 19 1 0 120;
#X restore 324 26 graph;
#X floatatom 189 358 5 0 0 0 - - -;
#X text 152 142 inlet 2: imaginary values;
#X text 153 194 argument: overlap factor;
#X text 153 159 inlet 3: overlap factor;
#X floatatom 189 249 5 0 0 0 - - -;
#X obj 189 268 sig~;
#X floatatom 223 249 5 0 0 0 - - -;
#X obj 223 268 sig~;
#X text 106 27 Cartesian to Amplitude;
#X obj 37 28 cartoamp~;
#X text 153 176 outlet: amplitudes;
#X obj 189 303 cartoamp~;
#X text 77 79 Converts cartesian coordinates to amplitude values;
#X text 152 125 inlet 1: real value;
#X connect 2 0 4 0;
#X connect 8 0 9 0;
#X connect 9 0 15 0;
#X connect 10 0 11 0;
#X connect 11 0 15 1;
#X connect 15 0 2 0;
