#N canvas 531 51 455 434 10;
#X obj 24 57 cnv 2 400 2 empty empty empty 20 12 0 14 -191407 -66577
0;
#X obj 178 309 monitor~;
#N canvas 234 138 200 239 (subpatch) 0;
#X msg 2 155 \; pd dsp \$1 \;;
#X obj 2 122 tgl 15 0 empty empty empty 17 7 0 10 -262144 -1 -1 1 1
;
#X text 20 122 DSP on/off;
#X obj 68 30 loadbang;
#X msg 68 87 1;
#X obj 2 30 r pd;
#X obj 2 59 route dsp;
#X msg 2 87 set \$1;
#X connect 1 0 0 0;
#X connect 3 0 4 0;
#X connect 4 0 1 0;
#X connect 5 0 6 0;
#X connect 6 0 7 0;
#X connect 7 0 1 0;
#X coords 0 1 100 -1 85 19 1 0 120;
#X restore 324 26 graph;
#X floatatom 178 331 5 0 0 0 - - -;
#X floatatom 178 222 5 0 0 0 - - -;
#X obj 178 241 sig~;
#X floatatom 229 222 5 0 0 0 - - -;
#X obj 229 241 sig~;
#X obj 37 28 cartomag~;
#X text 105 27 Cartesian to Magnitude;
#X obj 178 276 cartomag~;
#X text 160 165 outlet: magnitudes;
#X text 77 79 Converts cartesian coordinates to magnitude values;
#X text 159 131 inlet 1: real value;
#X text 159 148 inlet 2: imaginary value;
#X obj 108 382 link;
#X connect 1 0 3 0;
#X connect 4 0 5 0;
#X connect 5 0 10 0;
#X connect 6 0 7 0;
#X connect 7 0 10 1;
#X connect 10 0 1 0;
