#N canvas 526 50 454 446 10;
#X obj 100 395 link;
#X obj 24 57 cnv 2 400 2 empty empty empty 20 12 0 14 -191407 -66577
0;
#X obj 175 324 monitor~;
#N canvas 234 138 200 239 (subpatch) 0;
#X msg 2 155 \; pd dsp \$1 \;;
#X obj 2 122 tgl 15 0 empty empty empty 17 7 0 10 -262144 -1 -1 1 1
;
#X text 20 122 DSP on/off;
#X obj 68 30 loadbang;
#X msg 68 87 1;
#X obj 2 30 r pd;
#X obj 2 59 route dsp;
#X msg 2 87 set \$1;
#X connect 1 0 0 0;
#X connect 3 0 4 0;
#X connect 4 0 1 0;
#X connect 5 0 6 0;
#X connect 6 0 7 0;
#X connect 7 0 1 0;
#X coords 0 1 100 -1 85 19 1 0 120;
#X restore 324 26 graph;
#X floatatom 175 346 5 0 0 0 - - -;
#X floatatom 175 237 5 0 0 0 - - -;
#X obj 175 256 sig~;
#X floatatom 226 237 5 0 0 0 - - -;
#X obj 226 256 sig~;
#X obj 37 28 cmplxabs~;
#X text 105 27 Complex Absolute;
#X text 63 80 Calculates the absolute value of a complex number;
#X text 148 162 outlet 1: absolute value;
#X obj 175 291 cmplxabs~;
#X text 147 128 inlet 1: real value;
#X text 147 145 inlet 2: imaginary value;
#X connect 2 0 4 0;
#X connect 5 0 6 0;
#X connect 6 0 13 0;
#X connect 7 0 8 0;
#X connect 8 0 13 1;
#X connect 13 0 2 0;
