#N canvas 528 49 459 476 10;
#X obj 104 427 link;
#X obj 24 57 cnv 2 400 2 empty empty empty 20 12 0 14 -191407 -66577
0;
#X obj 160 362 monitor~;
#N canvas 234 138 200 239 (subpatch) 0;
#X msg 2 155 \; pd dsp \$1 \;;
#X obj 2 122 tgl 15 0 empty empty empty 17 7 0 10 -262144 -1 -1 1 1
;
#X text 20 122 DSP on/off;
#X obj 68 30 loadbang;
#X msg 68 87 1;
#X obj 2 30 r pd;
#X obj 2 59 route dsp;
#X msg 2 87 set \$1;
#X connect 1 0 0 0;
#X connect 3 0 4 0;
#X connect 4 0 1 0;
#X connect 5 0 6 0;
#X connect 6 0 7 0;
#X connect 7 0 1 0;
#X coords 0 1 100 -1 85 19 1 0 120;
#X restore 324 26 graph;
#X floatatom 160 384 5 0 0 0 - - -;
#X floatatom 160 276 5 0 0 0 - - -;
#X obj 160 295 sig~;
#X floatatom 196 276 5 0 0 0 - - -;
#X obj 196 295 sig~;
#X floatatom 232 276 5 0 0 0 - - -;
#X obj 232 295 sig~;
#X floatatom 268 276 5 0 0 0 - - -;
#X obj 268 295 sig~;
#X obj 217 362 monitor~;
#X floatatom 217 384 5 0 0 0 - - -;
#X obj 37 28 cmplxsub~;
#X text 108 27 Complex Subtraction;
#X text 51 80 Subtracts one complex number from another and outputs
the difference;
#X text 144 117 inlet 1: real minuend;
#X text 144 134 inlet 2: imaginary minuend;
#X text 145 151 inlet 3: real subtrahend;
#X text 145 168 inlet 4: imaginary subtrahend;
#X text 145 185 outlet 1: real difference;
#X text 145 202 outlet 2: imaginary difference;
#X text 145 236 argument 2: imaginary subtrahend;
#X text 145 219 argument 1: real subtrahend;
#X obj 160 331 cmplxsub~;
#X connect 2 0 4 0;
#X connect 5 0 6 0;
#X connect 6 0 26 0;
#X connect 7 0 8 0;
#X connect 8 0 26 1;
#X connect 9 0 10 0;
#X connect 10 0 26 2;
#X connect 11 0 12 0;
#X connect 12 0 26 3;
#X connect 13 0 14 0;
#X connect 26 0 2 0;
#X connect 26 1 13 0;
