#N canvas 529 54 454 475 10;
#X obj 104 430 link;
#X obj 24 57 cnv 2 400 2 empty empty empty 20 12 0 14 -191407 -66577
0;
#X obj 153 358 monitor~;
#N canvas 234 138 200 239 (subpatch) 0;
#X msg 2 155 \; pd dsp \$1 \;;
#X obj 2 122 tgl 15 0 empty empty empty 17 7 0 10 -262144 -1 -1 1 1
;
#X text 20 122 DSP on/off;
#X obj 68 30 loadbang;
#X msg 68 87 1;
#X obj 2 30 r pd;
#X obj 2 59 route dsp;
#X msg 2 87 set \$1;
#X connect 1 0 0 0;
#X connect 3 0 4 0;
#X connect 4 0 1 0;
#X connect 5 0 6 0;
#X connect 6 0 7 0;
#X connect 7 0 1 0;
#X coords 0 1 100 -1 85 19 1 0 120;
#X restore 324 26 graph;
#X floatatom 153 380 5 0 0 0 - - -;
#X floatatom 153 271 5 0 0 0 - - -;
#X obj 153 290 sig~;
#X floatatom 189 271 5 0 0 0 - - -;
#X obj 189 290 sig~;
#X floatatom 225 271 5 0 0 0 - - -;
#X obj 225 290 sig~;
#X floatatom 261 271 5 0 0 0 - - -;
#X obj 261 290 sig~;
#X obj 209 358 monitor~;
#X floatatom 209 380 5 0 0 0 - - -;
#X obj 37 28 cmplxdiv~;
#X text 105 27 Complex Division;
#X text 144 111 inlet 1: real numerator;
#X text 144 128 inlet 2: imaginary numerator;
#X text 145 145 inlet 3: real denominator;
#X text 145 162 inlet 4: imaginary denominator;
#X text 145 179 outlet 1: real result;
#X text 145 196 outlet 2: imaginary result;
#X text 145 213 argument 1: real denominator;
#X text 145 230 argument 2: imaginary denominator;
#X obj 153 327 cmplxdiv~;
#X text 72 77 Performs complex division and outputs the result;
#X connect 2 0 4 0;
#X connect 5 0 6 0;
#X connect 6 0 25 0;
#X connect 7 0 8 0;
#X connect 8 0 25 1;
#X connect 9 0 10 0;
#X connect 10 0 25 2;
#X connect 11 0 12 0;
#X connect 12 0 25 3;
#X connect 13 0 14 0;
#X connect 25 0 2 0;
#X connect 25 1 13 0;
