#N canvas 540 49 455 473 10;
#X obj 107 431 link;
#X obj 24 57 cnv 2 400 2 empty empty empty 20 12 0 14 -191407 -66577
0;
#N canvas 234 138 200 239 (subpatch) 0;
#X msg 2 155 \; pd dsp \$1 \;;
#X obj 2 122 tgl 15 0 empty empty empty 17 7 0 10 -262144 -1 -1 1 1
;
#X text 20 122 DSP on/off;
#X obj 68 30 loadbang;
#X msg 68 87 1;
#X obj 2 30 r pd;
#X obj 2 59 route dsp;
#X msg 2 87 set \$1;
#X connect 1 0 0 0;
#X connect 3 0 4 0;
#X connect 4 0 1 0;
#X connect 5 0 6 0;
#X connect 6 0 7 0;
#X connect 7 0 1 0;
#X coords 0 1 100 -1 85 19 1 0 120;
#X restore 324 26 graph;
#X floatatom 156 375 8 0 0 0 - - -;
#X text 142 136 inlet 1: bang;
#X text 142 153 inlet 2: current count;
#X text 143 170 inlet 3: increment value;
#X text 143 187 inlet 4: minimum value;
#X text 143 204 inlet 5: maximum value;
#X text 144 221 outlet: count value;
#X obj 156 324 bng 15 250 50 0 empty empty empty 17 7 0 10 -262144
-1 -1;
#X text 51 79 Counts between minimum and maximum limits using an arbitrary
increment value and wraps overflow back into counting range;
#X text 144 286 4 arguments: count inc min max;
#X text 144 254 2 arguments: min max;
#X text 144 238 1 argument: inc;
#X text 144 270 3 arguments: inc min max;
#X floatatom 179 325 5 0 0 0 - - -;
#X floatatom 213 325 5 0 0 0 - - -;
#X floatatom 247 325 5 0 0 0 - - -;
#X floatatom 281 325 5 0 0 0 - - -;
#X obj 37 28 countwrap;
#X text 107 27 Counter Wrap;
#X obj 156 353 countwrap 1 0 10;
#X connect 10 0 22 0;
#X connect 16 0 22 1;
#X connect 17 0 22 2;
#X connect 18 0 22 3;
#X connect 19 0 22 4;
#X connect 22 0 3 0;
