#N canvas 528 50 455 434 10;
#X obj 98 396 link;
#X obj 24 57 cnv 2 400 2 empty empty empty 20 12 0 14 -191407 -66577
0;
#X obj 121 320 monitor~;
#N canvas 234 138 200 239 (subpatch) 0;
#X msg 2 155 \; pd dsp \$1 \;;
#X obj 2 122 tgl 15 0 empty empty empty 17 7 0 10 -262144 -1 -1 1 1
;
#X text 20 122 DSP on/off;
#X obj 68 30 loadbang;
#X msg 68 87 1;
#X obj 2 30 r pd;
#X obj 2 59 route dsp;
#X msg 2 87 set \$1;
#X connect 1 0 0 0;
#X connect 3 0 4 0;
#X connect 4 0 1 0;
#X connect 5 0 6 0;
#X connect 6 0 7 0;
#X connect 7 0 1 0;
#X coords 0 1 100 -1 85 19 1 0 120;
#X restore 324 26 graph;
#X floatatom 121 227 5 0 0 0 - - -;
#X obj 121 246 sig~;
#X floatatom 121 342 5 0 0 0 - - -;
#X text 155 155 outlet: magnitude;
#X text 155 172 argument: overlap factor;
#X floatatom 166 227 5 0 0 0 - - -;
#X obj 281 320 monitor~;
#X floatatom 281 227 5 0 0 0 - - -;
#X obj 281 246 sig~;
#X floatatom 281 342 5 0 0 0 - - -;
#X text 155 138 inlet 2: overlap factor;
#X obj 37 28 dbtomag~;
#X text 106 27 Decibels to Magnitude;
#X text 155 121 inlet 1: decibels;
#X obj 121 287 dbtomag~;
#X obj 281 287 dbtomag~ 1;
#X text 77 74 Converts dB-FS decibel values to magnitude values;
#X connect 2 0 6 0;
#X connect 4 0 5 0;
#X connect 5 0 18 0;
#X connect 9 0 18 1;
#X connect 10 0 13 0;
#X connect 11 0 12 0;
#X connect 12 0 19 0;
#X connect 18 0 2 0;
#X connect 19 0 10 0;
