#N canvas 536 63 455 434 10;
#X obj 104 389 link;
#X obj 24 57 cnv 2 400 2 empty empty empty 20 12 0 14 -191407 -66577
0;
#X obj 202 311 monitor~;
#N canvas 234 138 200 239 (subpatch) 0;
#X msg 2 155 \; pd dsp \$1 \;;
#X obj 2 122 tgl 15 0 empty empty empty 17 7 0 10 -262144 -1 -1 1 1
;
#X text 20 122 DSP on/off;
#X obj 68 30 loadbang;
#X msg 68 87 1;
#X obj 2 30 r pd;
#X obj 2 59 route dsp;
#X msg 2 87 set \$1;
#X connect 1 0 0 0;
#X connect 3 0 4 0;
#X connect 4 0 1 0;
#X connect 5 0 6 0;
#X connect 6 0 7 0;
#X connect 7 0 1 0;
#X coords 0 1 100 -1 85 19 1 0 120;
#X restore 324 26 graph;
#X floatatom 202 218 5 0 0 0 - - -;
#X obj 202 237 sig~;
#X floatatom 202 333 5 0 0 0 - - -;
#X obj 37 28 dbtoamp~;
#X text 98 27 Decibels to Amplitude;
#X text 171 131 inlet: decibels;
#X text 171 148 outlet: amplitude;
#X obj 202 278 dbtoamp~;
#X text 77 79 Converts db-FS decibel values to amplitude values;
#X connect 2 0 6 0;
#X connect 4 0 5 0;
#X connect 5 0 11 0;
#X connect 11 0 2 0;
