#N canvas 540 48 455 434 10;
#X obj 24 57 cnv 2 400 2 empty empty empty 20 12 0 14 -191407 -66577
0;
#N canvas 234 138 200 239 (subpatch) 0;
#X msg 2 155 \; pd dsp \$1 \;;
#X obj 2 122 tgl 15 0 empty empty empty 17 7 0 10 -262144 -1 -1 1 1
;
#X text 20 122 DSP on/off;
#X obj 68 30 loadbang;
#X msg 68 87 1;
#X obj 2 30 r pd;
#X obj 2 59 route dsp;
#X msg 2 87 set \$1;
#X connect 1 0 0 0;
#X connect 3 0 4 0;
#X connect 4 0 1 0;
#X connect 5 0 6 0;
#X connect 6 0 7 0;
#X connect 7 0 1 0;
#X coords 0 1 100 -1 85 19 1 0 120;
#X restore 324 26 graph;
#X obj 37 28 dspbang~;
#X text 113 27 DSP Bang;
#X obj 187 240 dspbang~;
#X obj 187 281 bng 15 250 50 0 empty empty empty 17 7 0 10 -262144
-1 -1;
#X text 46 79 Outputs a bang when dsp is turned on or when the dsp
chain is reconstructed;
#X text 175 159 outlet: bang;
#X obj 106 379 link;
#X connect 4 0 5 0;
