#N canvas 527 51 455 437 10;
#X obj 114 392 link;
#X obj 26 57 cnv 2 400 2 empty empty empty 20 12 0 14 -191407 -66577
0;
#N canvas 234 138 200 239 (subpatch) 0;
#X msg 2 155 \; pd dsp \$1 \;;
#X obj 2 122 tgl 15 0 empty empty empty 17 7 0 10 -262144 -1 -1 1 1
;
#X text 20 122 DSP on/off;
#X obj 68 30 loadbang;
#X msg 68 87 1;
#X obj 2 30 r pd;
#X obj 2 59 route dsp;
#X msg 2 87 set \$1;
#X connect 1 0 0 0;
#X connect 3 0 4 0;
#X connect 4 0 1 0;
#X connect 5 0 6 0;
#X connect 6 0 7 0;
#X connect 7 0 1 0;
#X coords 0 1 100 -1 85 19 1 0 120;
#X restore 326 26 graph;
#X floatatom 198 340 5 0 0 0 - - -;
#X obj 198 318 binmonitor~ 1;
#X obj 39 28 freqtophase~;
#X text 131 27 Frequency to Phase;
#X obj 198 284 freqtophase~;
#X text 160 148 inlet 2: overlap factor;
#X text 160 131 inlet 1: frequency;
#X text 161 182 argument: overlap factor;
#X obj 198 249 sig~ 0.1;
#X text 51 74 Converts frequency values to phase values for each bin
of spectral data;
#X text 161 165 outlet: phase (-pi to pi);
#X connect 4 0 3 0;
#X connect 7 0 4 0;
#X connect 11 0 7 0;
