#N canvas 525 50 465 467 10;
#X obj 110 415 link;
#X obj 26 57 cnv 2 400 2 empty empty empty 20 12 0 14 -191407 -66577
0;
#N canvas 234 138 200 239 (subpatch) 0;
#X msg 2 155 \; pd dsp \$1 \;;
#X obj 2 122 tgl 15 0 empty empty empty 17 7 0 10 -262144 -1 -1 1 1
;
#X text 20 122 DSP on/off;
#X obj 68 30 loadbang;
#X msg 68 87 1;
#X obj 2 30 r pd;
#X obj 2 59 route dsp;
#X msg 2 87 set \$1;
#X connect 1 0 0 0;
#X connect 3 0 4 0;
#X connect 4 0 1 0;
#X connect 5 0 6 0;
#X connect 6 0 7 0;
#X connect 7 0 1 0;
#X coords 0 1 100 -1 85 19 1 0 120;
#X restore 326 26 graph;
#X text 149 159 inlet 3: overlap factor;
#X text 149 210 argument: overlap factor;
#X floatatom 243 357 5 0 0 0 - - -;
#X obj 243 335 binmonitor~ 1;
#X floatatom 159 357 5 0 0 0 - - -;
#X obj 159 335 binmonitor~ 1;
#X obj 159 266 sig~ 1;
#X text 148 125 inlet 1: magnitude;
#X text 148 142 inlet 2: frequency;
#X text 123 27 Frequency to Polar;
#X text 149 176 outlet 1: magnitude;
#X obj 203 266 sig~ 0.1;
#X text 149 193 outlet 2: phase (-pi to pi);
#X obj 39 28 freqtopolar~;
#X obj 159 301 freqtopolar~;
#X text 42 74 Converts magnitude and frequency pairs to polar coordinates
;
#X connect 6 0 5 0;
#X connect 8 0 7 0;
#X connect 9 0 17 0;
#X connect 14 0 17 1;
#X connect 17 0 8 0;
#X connect 17 1 6 0;
