#N canvas 528 49 464 450 10;
#X obj 108 403 link;
#X obj 26 54 cnv 2 400 2 empty empty empty 20 12 0 14 -191407 -66577
0;
#N canvas 234 138 200 239 (subpatch) 0;
#X msg 2 155 \; pd dsp \$1 \;;
#X obj 2 122 tgl 15 0 empty empty empty 17 7 0 10 -262144 -1 -1 1 1
;
#X text 20 122 DSP on/off;
#X obj 68 30 loadbang;
#X msg 68 87 1;
#X obj 2 30 r pd;
#X obj 2 59 route dsp;
#X msg 2 87 set \$1;
#X connect 1 0 0 0;
#X connect 3 0 4 0;
#X connect 4 0 1 0;
#X connect 5 0 6 0;
#X connect 6 0 7 0;
#X connect 7 0 1 0;
#X coords 0 1 100 -1 85 19 1 0 120;
#X restore 326 23 graph;
#X text 149 156 inlet 3: overlap factor;
#X text 149 207 argument: overlap factor;
#X floatatom 243 354 5 0 0 0 - - -;
#X obj 243 332 binmonitor~ 1;
#X floatatom 159 354 5 0 0 0 - - -;
#X obj 159 332 binmonitor~ 1;
#X obj 159 263 sig~ 1;
#X obj 203 263 sig~ 1;
#X obj 159 298 freqtocar~;
#X obj 39 25 freqtocar~;
#X text 116 24 Frequency to Cartesian;
#X text 148 122 inlet 1: magnitude;
#X text 148 139 inlet 2: frequency;
#X text 149 173 outlet 1: real values;
#X text 149 190 outlet 2: imaginary values;
#X text 62 71 Converts magnitude and frequency pairs to cartesian coordinates
;
#X connect 6 0 5 0;
#X connect 8 0 7 0;
#X connect 9 0 11 0;
#X connect 10 0 11 1;
#X connect 11 0 8 0;
#X connect 11 1 6 0;
