#N canvas 530 63 455 434 10;
#X obj 106 385 link;
#X obj 24 57 cnv 2 400 2 empty empty empty 20 12 0 14 -191407 -66577
0;
#X obj 115 262 sig~;
#X obj 115 319 monitor~;
#X floatatom 284 243 5 0 0 0 - - -;
#X obj 284 262 sig~;
#X obj 284 319 monitor~;
#N canvas 234 138 200 239 (subpatch) 0;
#X msg 2 155 \; pd dsp \$1 \;;
#X obj 2 122 tgl 15 0 empty empty empty 17 7 0 10 -262144 -1 -1 1 1
;
#X text 20 122 DSP on/off;
#X obj 68 30 loadbang;
#X msg 68 87 1;
#X obj 2 30 r pd;
#X obj 2 59 route dsp;
#X msg 2 87 set \$1;
#X connect 1 0 0 0;
#X connect 3 0 4 0;
#X connect 4 0 1 0;
#X connect 5 0 6 0;
#X connect 6 0 7 0;
#X connect 7 0 1 0;
#X coords 0 1 100 -1 85 19 1 0 120;
#X restore 324 26 graph;
#X text 77 27 Modulo;
#X text 171 131 inlet 1: dividend;
#X text 171 148 inlet 2: divisor;
#X text 172 182 argument: divisor;
#X obj 37 28 %~;
#X text 34 79 Performs a modulo operation using the values of two signals
and outputs the result;
#X obj 115 291 %~;
#X floatatom 284 341 5 0 0 0 - - -;
#X floatatom 115 341 5 0 0 0 - - -;
#X obj 284 291 %~ 10;
#X floatatom 115 243 5 0 0 0 - - -;
#X obj 149 262 sig~;
#X floatatom 149 243 5 0 0 0 - - -;
#X text 172 165 outlet: remainder;
#X connect 2 0 14 0;
#X connect 3 0 16 0;
#X connect 4 0 5 0;
#X connect 5 0 17 0;
#X connect 6 0 15 0;
#X connect 14 0 3 0;
#X connect 17 0 6 0;
#X connect 18 0 2 0;
#X connect 19 0 14 1;
#X connect 20 0 19 0;
