#N canvas 541 53 455 434 10;
#X obj 103 386 link;
#X obj 24 57 cnv 2 400 2 empty empty empty 20 12 0 14 -191407 -66577
0;
#X obj 115 242 tgl 15 0 empty empty empty 17 7 0 10 -262144 -1 -1 0
1;
#X obj 115 262 sig~;
#X obj 115 319 monitor~;
#X obj 115 341 tgl 15 0 empty empty empty 17 7 0 10 -262144 -1 -1 1
1;
#X floatatom 284 243 5 0 0 0 - - -;
#X obj 284 262 sig~;
#X obj 284 319 monitor~;
#N canvas 234 138 200 239 (subpatch) 0;
#X msg 2 155 \; pd dsp \$1 \;;
#X obj 2 122 tgl 15 0 empty empty empty 17 7 0 10 -262144 -1 -1 1 1
;
#X text 20 122 DSP on/off;
#X obj 68 30 loadbang;
#X msg 68 87 1;
#X obj 2 30 r pd;
#X obj 2 59 route dsp;
#X msg 2 87 set \$1;
#X connect 1 0 0 0;
#X connect 3 0 4 0;
#X connect 4 0 1 0;
#X connect 5 0 6 0;
#X connect 6 0 7 0;
#X connect 7 0 1 0;
#X coords 0 1 100 -1 85 19 1 0 120;
#X restore 324 26 graph;
#X text 77 27 Logical Not;
#X obj 37 28 !~;
#X obj 115 291 !~;
#X floatatom 284 341 5 0 0 0 - - -;
#X obj 284 291 !~ 1;
#X text 171 147 inlet: value;
#X text 171 164 outlet: result;
#X text 84 79 Performs a logical not operation on a signal;
#X connect 2 0 3 0;
#X connect 3 0 12 0;
#X connect 4 0 5 0;
#X connect 6 0 7 0;
#X connect 7 0 14 0;
#X connect 8 0 13 0;
#X connect 12 0 4 0;
#X connect 14 0 8 0;
