#N canvas 529 47 455 434 10;
#X obj 105 392 link;
#X obj 24 57 cnv 2 400 2 empty empty empty 20 12 0 14 -191407 -66577
0;
#N canvas 234 138 200 239 (subpatch) 0;
#X msg 2 155 \; pd dsp \$1 \;;
#X obj 2 122 tgl 15 0 empty empty empty 17 7 0 10 -262144 -1 -1 1 1
;
#X text 20 122 DSP on/off;
#X obj 68 30 loadbang;
#X msg 68 87 1;
#X obj 2 30 r pd;
#X obj 2 59 route dsp;
#X msg 2 87 set \$1;
#X connect 1 0 0 0;
#X connect 3 0 4 0;
#X connect 4 0 1 0;
#X connect 5 0 6 0;
#X connect 6 0 7 0;
#X connect 7 0 1 0;
#X coords 0 1 100 -1 85 19 1 0 120;
#X restore 324 26 graph;
#X text 46 79 Calculates running sums of successive fft frame phases
for each bin;
#X text 133 149 outlet: acccumlated phase data;
#X text 133 132 inlet: spectral phase data;
#X floatatom 179 346 8 0 0 0 - - -;
#X obj 179 193 phasor~ 1e-05;
#X obj 179 324 binmonitor~ 1;
#X obj 179 215 rfft~;
#X obj 179 237 cartophase~;
#X obj 37 28 phaseaccum~;
#X text 121 27 Phase Accumulate;
#X obj 179 279 phaseaccum~;
#X connect 7 0 9 0;
#X connect 8 0 6 0;
#X connect 9 0 10 0;
#X connect 9 1 10 1;
#X connect 10 0 13 0;
#X connect 13 0 8 0;
