#N canvas 532 50 455 434 10;
#X obj 108 392 link;
#X obj 24 57 cnv 2 400 2 empty empty empty 20 12 0 14 -191407 -66577
0;
#N canvas 234 138 200 239 (subpatch) 0;
#X msg 2 155 \; pd dsp \$1 \;;
#X obj 2 122 tgl 15 0 empty empty empty 17 7 0 10 -262144 -1 -1 1 1
;
#X text 20 122 DSP on/off;
#X obj 68 30 loadbang;
#X msg 68 87 1;
#X obj 2 30 r pd;
#X obj 2 59 route dsp;
#X msg 2 87 set \$1;
#X connect 1 0 0 0;
#X connect 3 0 4 0;
#X connect 4 0 1 0;
#X connect 5 0 6 0;
#X connect 6 0 7 0;
#X connect 7 0 1 0;
#X coords 0 1 100 -1 85 19 1 0 120;
#X restore 324 26 graph;
#X text 133 132 inlet: spectral phase data;
#X obj 179 225 rfft~;
#X obj 179 247 cartophase~;
#X text 46 79 Calculates phase deviation between successive fft frames
for each bin;
#X obj 179 203 phasor~ 700;
#X obj 179 326 binmonitor~ 1;
#X floatatom 179 348 5 0 0 0 - - -;
#X text 133 149 outlet: phase delta data;
#X obj 37 28 phasedelta~;
#X text 121 27 Phase Delta;
#X obj 179 286 phasedelta~;
#X connect 4 0 5 0;
#X connect 4 1 5 1;
#X connect 5 0 13 0;
#X connect 7 0 4 0;
#X connect 8 0 9 0;
#X connect 13 0 8 0;
