#N canvas 531 49 455 434 10;
#X obj 109 380 link;
#X obj 26 57 cnv 2 400 2 empty empty empty 20 12 0 14 -191407 -66577
0;
#N canvas 234 138 200 239 (subpatch) 0;
#X msg 2 155 \; pd dsp \$1 \;;
#X obj 2 122 tgl 15 0 empty empty empty 17 7 0 10 -262144 -1 -1 1 1
;
#X text 20 122 DSP on/off;
#X obj 68 30 loadbang;
#X msg 68 87 1;
#X obj 2 30 r pd;
#X obj 2 59 route dsp;
#X msg 2 87 set \$1;
#X connect 1 0 0 0;
#X connect 3 0 4 0;
#X connect 4 0 1 0;
#X connect 5 0 6 0;
#X connect 6 0 7 0;
#X connect 7 0 1 0;
#X coords 0 1 100 -1 85 19 1 0 120;
#X restore 326 26 graph;
#X floatatom 195 321 5 0 0 0 - - -;
#X text 128 74 Wraps a signal between -pi and pi;
#X text 165 131 inlet 1: phase;
#X obj 195 299 monitor~;
#X obj 195 209 phasor~ 0.01;
#X obj 195 231 *~ 100;
#X text 165 148 outlet: wrapped phase;
#X obj 39 28 piwrap~;
#X text 101 27 Pi Wrap;
#X obj 195 265 piwrap~;
#X connect 6 0 3 0;
#X connect 7 0 8 0;
#X connect 8 0 12 0;
#X connect 12 0 6 0;
