#N canvas 546 64 455 434 10;
#X obj 111 388 link;
#X obj 24 57 cnv 2 400 2 empty empty empty 20 12 0 14 -191407 -66577
0;
#X obj 175 324 monitor~;
#N canvas 234 138 200 239 (subpatch) 0;
#X msg 2 155 \; pd dsp \$1 \;;
#X obj 2 122 tgl 15 0 empty empty empty 17 7 0 10 -262144 -1 -1 1 1
;
#X text 20 122 DSP on/off;
#X obj 68 30 loadbang;
#X msg 68 87 1;
#X obj 2 30 r pd;
#X obj 2 59 route dsp;
#X msg 2 87 set \$1;
#X connect 1 0 0 0;
#X connect 3 0 4 0;
#X connect 4 0 1 0;
#X connect 5 0 6 0;
#X connect 6 0 7 0;
#X connect 7 0 1 0;
#X coords 0 1 100 -1 85 19 1 0 120;
#X restore 324 26 graph;
#X floatatom 175 346 5 0 0 0 - - -;
#X floatatom 175 237 5 0 0 0 - - -;
#X obj 175 256 sig~;
#X floatatom 238 237 5 0 0 0 - - -;
#X obj 238 256 sig~;
#X obj 238 324 monitor~;
#X floatatom 238 346 5 0 0 0 - - -;
#X text 117 27 Polar to Cartesian;
#X text 63 80 Converts polar coordinates to cartesian coordinates;
#X text 147 128 inlet 1: magnitude;
#X text 147 145 inlet 2: phase;
#X text 148 162 outlet 1: real value;
#X text 148 179 outlet 2: imaginary value;
#X obj 37 28 polartocar~;
#X obj 175 291 polartocar~;
#X connect 2 0 4 0;
#X connect 5 0 6 0;
#X connect 6 0 18 0;
#X connect 7 0 8 0;
#X connect 8 0 18 1;
#X connect 9 0 10 0;
#X connect 18 0 2 0;
#X connect 18 1 9 0;
