#N canvas 547 45 456 631 10;
#X obj 105 588 link;
#X obj 24 57 cnv 2 400 2 empty empty empty 20 12 0 14 -191407 -66577
0;
#N canvas 234 138 200 239 (subpatch) 0;
#X msg 2 155 \; pd dsp \$1 \;;
#X obj 2 122 tgl 15 0 empty empty empty 17 7 0 10 -262144 -1 -1 1 1
;
#X text 20 122 DSP on/off;
#X obj 68 30 loadbang;
#X msg 68 87 1;
#X obj 2 30 r pd;
#X obj 2 59 route dsp;
#X msg 2 87 set \$1;
#X connect 1 0 0 0;
#X connect 3 0 4 0;
#X connect 4 0 1 0;
#X connect 5 0 6 0;
#X connect 6 0 7 0;
#X connect 7 0 1 0;
#X coords 0 1 100 -1 85 19 1 0 120;
#X restore 324 26 graph;
#X obj 37 28 rgbtable;
#X text 102 27 RGB Table;
#X floatatom 117 371 5 0 0 0 - - -;
#X floatatom 151 371 5 0 0 0 - - -;
#X floatatom 117 282 5 0 0 0 - - -;
#X obj 117 328 rgbtable;
#X obj 162 433 cnv 15 128 128 empty empty empty 20 12 0 14 -1 -262144
0;
#N canvas 560 414 264 379 canvasrgb 0;
#X obj 36 45 inlet;
#X obj 98 45 inlet;
#X obj 150 45 inlet;
#X text 43 19 red;
#X text 99 19 green;
#X text 154 19 blue;
#X obj 98 196 +;
#X obj 98 254 +;
#X obj 36 128 * -65536;
#X obj 98 128 * -256;
#X obj 150 128 * -1;
#X obj 150 74 * 255;
#X obj 98 74 * 255;
#X obj 36 74 * 255;
#X obj 98 280 - 1;
#X obj 150 101 int;
#X obj 150 157 t b f;
#X obj 98 219 t b f;
#X obj 98 101 int;
#X obj 36 101 int;
#X msg 98 309 \; rgbcanvas color \$1;
#X connect 0 0 13 0;
#X connect 1 0 12 0;
#X connect 2 0 11 0;
#X connect 6 0 17 0;
#X connect 7 0 14 0;
#X connect 8 0 7 0;
#X connect 9 0 6 0;
#X connect 10 0 16 0;
#X connect 11 0 15 0;
#X connect 12 0 18 0;
#X connect 13 0 19 0;
#X connect 14 0 20 0;
#X connect 15 0 10 0;
#X connect 16 0 6 0;
#X connect 16 1 6 1;
#X connect 17 0 7 0;
#X connect 17 1 7 1;
#X connect 18 0 9 0;
#X connect 19 0 8 0;
#X restore 117 393 pd canvasrgb;
#X msg 265 257 rgb;
#X msg 265 276 purple-yellow;
#X msg 265 295 blue-green;
#X msg 265 314 amber;
#X msg 265 333 red;
#X msg 265 352 green;
#X msg 265 371 blue;
#N canvas 258 155 168 151 numbers 0;
#X obj 62 75 monitor~;
#X obj 62 52 sigtoctl~;
#X obj 62 97 outlet;
#X obj 62 29 osc~ 0.2;
#X connect 0 0 2 0;
#X connect 1 0 0 0;
#X connect 3 0 1 0;
#X restore 117 257 pd numbers;
#X floatatom 186 371 5 0 0 0 - - -;
#X obj 265 393 s color_scheme;
#X obj 154 280 r color_scheme;
#X obj 164 435 cnv 15 124 124 empty rgbcanvas empty 20 12 0 14 -4413
-262144 0;
#X text 158 136 inlet 1: float;
#X text 158 153 outlet 1: red float;
#X text 159 170 outlet 2: green float;
#X text 159 187 outlet 3: blue float;
#X text 58 80 Outputs red \, green \, and blue values between 0 and
1 based on input value between 0 and 1 \, according to selected color
scheme (default rgb);
#X text 159 205 argument: color scheme;
#X text 159 222 message: color scheme;
#X connect 5 0 10 0;
#X connect 6 0 10 1;
#X connect 7 0 8 0;
#X connect 8 0 5 0;
#X connect 8 1 6 0;
#X connect 8 2 19 0;
#X connect 11 0 20 0;
#X connect 12 0 20 0;
#X connect 13 0 20 0;
#X connect 14 0 20 0;
#X connect 15 0 20 0;
#X connect 16 0 20 0;
#X connect 17 0 20 0;
#X connect 18 0 7 0;
#X connect 19 0 10 2;
#X connect 21 0 8 0;
