#N canvas 532 57 455 434 10;
#X obj 108 383 link;
#X obj 24 57 cnv 2 400 2 empty empty empty 20 12 0 14 -191407 -66577
0;
#N canvas 234 138 200 239 (subpatch) 0;
#X msg 2 155 \; pd dsp \$1 \;;
#X obj 2 122 tgl 15 0 empty empty empty 17 7 0 10 -262144 -1 -1 1 1
;
#X text 20 122 DSP on/off;
#X obj 68 30 loadbang;
#X msg 68 87 1;
#X obj 2 30 r pd;
#X obj 2 59 route dsp;
#X msg 2 87 set \$1;
#X connect 1 0 0 0;
#X connect 3 0 4 0;
#X connect 4 0 1 0;
#X connect 5 0 6 0;
#X connect 6 0 7 0;
#X connect 7 0 1 0;
#X coords 0 1 100 -1 85 19 1 0 120;
#X restore 324 26 graph;
#X obj 186 327 print;
#X msg 100 229 ls -l;
#X msg 140 229 whoami;
#X msg 186 229 uptime;
#X msg 232 229 uname -a;
#X msg 290 229 killall Pd;
#X text 58 76 Sends messages to an instance of the operating system's
command line shell and outputs the results;
#X text 164 147 inlet: commands;
#X text 164 164 outlet: results;
#X obj 37 28 terminal;
#X text 97 27 Terminal;
#X obj 186 289 terminal;
#X connect 4 0 14 0;
#X connect 5 0 14 0;
#X connect 6 0 14 0;
#X connect 7 0 14 0;
#X connect 8 0 14 0;
#X connect 14 0 3 0;
