#N canvas 541 47 455 434 10;
#X obj 101 390 link;
#X obj 24 57 cnv 2 400 2 empty empty empty 20 12 0 14 -191407 -66577
0;
#X floatatom 200 218 5 0 0 0 - - -;
#X obj 200 237 sig~;
#X obj 200 312 monitor~;
#N canvas 234 138 200 239 (subpatch) 0;
#X msg 2 155 \; pd dsp \$1 \;;
#X obj 2 122 tgl 15 0 empty empty empty 17 7 0 10 -262144 -1 -1 1 1
;
#X text 20 122 DSP on/off;
#X obj 68 30 loadbang;
#X msg 68 87 1;
#X obj 2 30 r pd;
#X obj 2 59 route dsp;
#X msg 2 87 set \$1;
#X connect 1 0 0 0;
#X connect 3 0 4 0;
#X connect 4 0 1 0;
#X connect 5 0 6 0;
#X connect 6 0 7 0;
#X connect 7 0 1 0;
#X coords 0 1 100 -1 85 19 1 0 120;
#X restore 324 26 graph;
#X floatatom 200 334 5 0 0 0 - - -;
#X text 175 135 inlet: turns;
#X obj 37 28 turntorad~;
#X text 115 27 Turns to Radians;
#X text 146 79 Converts turns to radians;
#X text 175 152 outlet: radians;
#X obj 200 273 turntorad~;
#X connect 2 0 3 0;
#X connect 3 0 12 0;
#X connect 4 0 6 0;
#X connect 12 0 4 0;
